<?xml version="1.0" encoding="utf-8"?>
<svg version="1.1" xmlns:xlink="http://www.w3.org/1999/xlink" width="375px" height="181px" xmlns="http://www.w3.org/2000/svg">
  <g transform="matrix(1 0 0 1 -261 -225 )">
    <path d="M 261 225  L 636 225  L 636 406  L 261 406  L 261 225  " fill-rule="nonzero" fill="#cccccc" stroke="none" />
    <path d="M 274 238  L 623 238  L 623 393  L 274 393  L 274 238  " fill-rule="nonzero" fill="#ffffff" stroke="none" />
    <path d="M 469.575 279.3  C 461.973 279.3  456 273.327  456 265.725  C 456 258.123  461.973 252.15  469.575 252.15  C 477.177 252.15  483.15 258.123  483.15 265.725  C 483.15 273.327  477.177 279.3  469.575 279.3  " fill-rule="nonzero" fill="#cccccc" stroke="none" />
    <path d="M 279 389  L 279 308.7  L 364 272.2  L 483 346.7184  L 551 294.1  L 619 346.7184  L 619 389  L 279 389  " fill-rule="nonzero" fill="#169bd5" stroke="none" />
  </g>
</svg>